<?xml version="1.0" encoding="UTF-8" standalone="no"?>
<!-- Generator: Adobe Illustrator 26.0.3, SVG Export Plug-In . SVG Version: 6.00 Build 0)  -->

<svg
   version="1.1"
   id="Ebene_1"
   x="0px"
   y="0px"
   width="39.799999"
   height="16.6"
   viewBox="0 0 39.799999 16.6"
   xml:space="preserve"
   sodipodi:docname="HeaderIcon.svg"
   inkscape:version="1.1.2 (0a00cf5339, 2022-02-04)"
   xmlns:inkscape="http://www.inkscape.org/namespaces/inkscape"
   xmlns:sodipodi="http://sodipodi.sourceforge.net/DTD/sodipodi-0.dtd"
   xmlns="http://www.w3.org/2000/svg"
   xmlns:svg="http://www.w3.org/2000/svg"><defs
   id="defs17" /><sodipodi:namedview
   id="namedview15"
   pagecolor="#ffffff"
   bordercolor="#666666"
   borderopacity="1.0"
   inkscape:pageshadow="2"
   inkscape:pageopacity="0.0"
   inkscape:pagecheckerboard="true"
   showgrid="false"
   fit-margin-top="0"
   fit-margin-left="0"
   fit-margin-right="0"
   fit-margin-bottom="0"
   inkscape:zoom="19.840909"
   inkscape:cx="20.639175"
   inkscape:cy="8.139748"
   inkscape:window-width="3370"
   inkscape:window-height="1376"
   inkscape:window-x="70"
   inkscape:window-y="27"
   inkscape:window-maximized="1"
   inkscape:current-layer="Ebene_1" />
<style
   type="text/css"
   id="style2">
	.st0{fill:#FFFFFF;}
	.st1{fill:#009EE0;}
	.st2{fill:none;}
</style>

<g
   id="g12"
   transform="translate(-2.1,-13.7)">
	<circle
   class="st1"
   cx="33.599998"
   cy="22"
   r="8.3000002"
   id="circle6" />
	<path
   class="st1"
   d="m 10.4,13.7 c -4.6,0 -8.3,3.7 -8.3,8.3 0,4.6 3.7,8.3 8.3,8.3 4.6,0 8.3,-3.7 8.3,-8.3 0,-4.6 -3.7,-8.3 -8.3,-8.3 z m 0.1,13.2 c -2.7,0 -4.9,-2.2 -4.9,-4.9 0,-2.7 2.2,-4.9 4.9,-4.9 2.7,0 4.9,2.2 4.9,4.9 0,2.7 -2.2,4.9 -4.9,4.9 z"
   id="path8" />
	<circle
   class="st2"
   cx="10.5"
   cy="22"
   r="4.9000001"
   id="circle10" />
</g>
</svg>
